<svg width="36" height="44" viewBox="0 0 36 44" fill="none" xmlns="http://www.w3.org/2000/svg">
<path d="M35.1272 20.4415L2.74536 0.273006C2.47277 0.101749 2.16025 0.00766118 1.84004 0.000448375C1.51984 -0.00676443 1.20354 0.0731587 0.923776 0.231973C0.644013 0.390787 0.410917 0.622743 0.248532 0.903911C0.0861464 1.18508 0.000352906 1.50528 0 1.83148V42.1685C0.000352906 42.4947 0.0861464 42.8149 0.248532 43.0961C0.410917 43.3773 0.644013 43.6092 0.923776 43.768C1.20354 43.9268 1.51984 44.0068 1.84004 43.9995C2.16025 43.9923 2.47277 43.8982 2.74536 43.727L35.1272 23.5585C35.3931 23.3983 35.6134 23.1704 35.7664 22.8971C35.9195 22.6238 36 22.3146 36 22C36 21.6854 35.9195 21.3762 35.7664 21.1029C35.6134 20.8296 35.3931 20.6017 35.1272 20.4415Z" fill="#171717"/>
</svg>
